<svg xmlns="http://www.w3.org/2000/svg" viewBox="4 4 24 24">
    <g fill="#043504">
        <g>
            <path
                d="M10.858 14.68c-2.818.756-4.204 3.16-4.873 5.33-.67 2.17-.648 4.15-.648 4.15a.25.25 0 00.254.248.25.25 0 00.248-.254s-.02-1.911.622-3.996c.644-2.085 1.926-4.297 4.528-4.994a.25.25 0 00.176-.306.25.25 0 00-.307-.177z" />
            <path
                d="M16.256 5.437a.25.25 0 00-.247.252s.02 1.913-.623 3.998-1.925 4.297-4.528 4.994a.25.25 0 00-.175.306.25.25 0 00.306.177c2.819-.755 4.204-3.161 4.874-5.331.67-2.17.647-4.149.647-4.149a.25.25 0 00-.254-.247z" />
            <path
                d="M10.989 14.68a.25.25 0 00-.306.178.25.25 0 00.175.306c1.785.478 2.94 1.66 3.707 3.036a.25.25 0 00.339.098.25.25 0 00.097-.341c-.812-1.458-2.08-2.759-4.012-3.276z" />
            <path
                d="M5.591 5.437a.25.25 0 00-.254.247s-.022 1.98.648 4.149c.669 2.17 2.055 4.576 4.873 5.331a.25.25 0 00.307-.177.25.25 0 00-.176-.306c-2.602-.697-3.884-2.91-4.528-4.994-.643-2.085-.622-3.998-.622-3.998a.25.25 0 00-.248-.252zM7.076 17.809a.25.25 0 00-.25.25.25.25 0 00.25.249h7.696a.25.25 0 00.25-.249.25.25 0 00-.25-.25zM6.01 20.607a.25.25 0 00-.25.25.25.25 0 00.25.25h6.65a.25.25 0 00.248-.25.25.25 0 00-.249-.25z" />
            <path
                d="M7.076 11.535a.25.25 0 00-.25.25.25.25 0 00.25.251h7.696a.25.25 0 00.25-.25.25.25 0 00-.25-.25zM6.01 8.738a.25.25 0 00-.25.248.25.25 0 00.25.25h9.827a.25.25 0 00.25-.25.25.25 0 00-.25-.248z" />
        </g>
        <path
            d="M15.234 17.664l-.152.049-.61.197-.103.86a4.45 4.45 0 00-1.002.732l-.855-.168-.471.646.424.762a4.44 4.44 0 00-.39 1.178l-.782.363v.799l.781.363c.075.41.206.805.39 1.178l-.423.762.47.646.856-.168c.3.29.635.536 1.002.733l.104.857.761.248.577-.62c.21.031.421.06.634.062h.004a4.45 4.45 0 00.635-.063l.576.621.76-.248.104-.855a4.45 4.45 0 001.003-.735l.854.168.47-.646-.423-.76c.185-.374.316-.77.39-1.18l.784-.363v-.799l-.782-.361a4.446 4.446 0 00-.386-1.194l.418-.748-.471-.646-.844.166a4.447 4.447 0 00-1.013-.736l-.104-.852-.76-.248-.572.615a4.455 4.455 0 00-.64-.056h-.003a4.45 4.45 0 00-.634.062zm-.148.574l.537.578.135-.025c.227-.043.458-.066.69-.068.233 0 .466.02.697.062l.132.024.532-.57.154.05.092.773.123.059c.42.204.802.482 1.127.818l.093.098.766-.15.096.129-.346.617v.129l.03.054c.22.413.365.86.429 1.323l.02.136.709.327v.16l-.71.328-.019.135c-.067.459-.215.904-.435 1.312l-.065.121.387.692-.096.129-.777-.153-.094.098c-.321.334-.699.61-1.115.814l-.121.06-.094.778-.154.051-.538-.578-.134.025a3.966 3.966 0 01-.688.069 3.933 3.933 0 01-.691-.069l-.137-.025-.535.578-.154-.05-.094-.778-.121-.06a3.971 3.971 0 01-1.117-.815l-.094-.098-.777.153-.094-.131.385-.692-.065-.119a3.962 3.962 0 01-.435-1.312l-.02-.135-.707-.328v-.16l.707-.329.02-.132c.066-.46.214-.904.435-1.313l.065-.121-.385-.691.094-.13.777.153.096-.098c.32-.334.698-.61 1.115-.814l.12-.06.095-.778z" />
        <path
            d="M16.447 20.607a2.08 2.08 0 00-2.076 2.077c0 1.143.933 2.074 2.076 2.074 1.144 0 2.074-.93 2.074-2.074 0-1.144-.93-2.077-2.074-2.077zm0 .5c.874 0 1.574.703 1.574 1.577a1.57 1.57 0 01-1.574 1.574 1.571 1.571 0 01-1.576-1.574c0-.874.703-1.577 1.576-1.577z" />
        <path
            d="M16.447 19.324a3.364 3.364 0 00-3.36 3.36 3.362 3.362 0 003.36 3.357 3.36 3.36 0 003.358-3.357 3.362 3.362 0 00-3.358-3.36zm0 .5a2.854 2.854 0 012.858 2.86 2.853 2.853 0 01-2.858 2.857 2.854 2.854 0 01-2.86-2.857 2.856 2.856 0 012.86-2.86z" />
        <path
            d="M21.285 13.146a.833.833 0 00-.828.829v2.392c0 .454.375.826.828.826h4.55a.83.83 0 00.827-.826v-2.392a.831.831 0 00-.826-.829zm0 .5h4.55c.186 0 .327.143.327.329v2.392a.32.32 0 01-.326.326h-4.55a.322.322 0 01-.329-.326v-2.392c0-.186.143-.329.328-.329zM20.785 8.478a.831.831 0 00-.001 1.17l2.191 2.192c.321.32.85.32 1.17-.001l2.192-2.192a.83.83 0 000-1.169l-2.192-2.191a.83.83 0 00-1.168 0zm.354.354L23.33 6.64a.32.32 0 01.462 0l2.191 2.192a.32.32 0 010 .461l-2.191 2.192a.322.322 0 01-.463.001l-2.192-2.191a.322.322 0 01.002-.463z"
            paint-order="fill markers stroke" />
        <path
            d="M23.186 16.943v5.489h-1.834v.5h2.084a.25.25 0 00.25-.25v-5.739zM23.31 11.834v1.562h.5v-1.562zM23.56 4.31a.25.25 0 00-.25.25v1.497a.25.25 0 00.25.25.25.25 0 00.25-.25V4.56a.25.25 0 00-.25-.25z" />
        <g>
            <path
                d="M24.714 5.683a.25.25 0 000-.354l-.958-.957a.25.25 0 00-.354 0 .25.25 0 000 .354l.957.957a.25.25 0 00.355 0z" />
            <path
                d="M23.718 4.765a.25.25 0 000-.355.25.25 0 00-.354 0l-.958.958a.25.25 0 000 .354.25.25 0 00.355 0z" />
        </g>
    </g>
</svg>