<svg xmlns="http://www.w3.org/2000/svg" viewBox="2 14 96 72">
        <g fill="#646c7e">
            <path
                d="M92.2 74.8c-.3 0-.6 0-.9.1L88 69.3c-.3-.6-1-.9-1.6-.9H75c-1 0-1.9.8-1.9 1.9 0 1 .8 1.9 1.9 1.9h10.2l2.7 4.6c-.7.9-1.2 2.1-1.2 3.3 0 3 2.4 5.3 5.3 5.3 3 0 5.3-2.4 5.3-5.3s-2.2-5.3-5.1-5.3zM75 62.1h11.3c.7 0 1.3-.4 1.6-.9l3.3-5.6c.3 0 .6.1.9.1 3 0 5.3-2.4 5.3-5.3s-2.4-5.3-5.3-5.3-5.3 2.4-5.3 5.3c0 1.3.5 2.4 1.2 3.3l-2.7 4.6H75c-1 0-1.9.8-1.9 1.9 0 1.1.9 1.9 1.9 1.9zM25 58.3H14.7L12 53.7c.7-.9 1.2-2.1 1.2-3.3 0-2.9-2.4-5.3-5.3-5.3-3 0-5.3 2.4-5.3 5.3 0 3 2.4 5.3 5.3 5.3.3 0 .6 0 .9-.1l3.3 5.6c.3.6 1 .9 1.6.9H25c1 0 1.9-.8 1.9-1.9 0-1-.9-1.9-1.9-1.9zM25 68.4H13.7c-.7 0-1.3.4-1.6.9l-3.3 5.6c-.3 0-.6-.1-.9-.1-3 0-5.3 2.4-5.3 5.3s2.4 5.3 5.3 5.3 5.3-2.4 5.3-5.3c0-1.3-.5-2.4-1.2-3.3l2.7-4.6H25c1 0 1.9-.8 1.9-1.9 0-1.1-.9-1.9-1.9-1.9zM64.9 14.5c-3 0-5.3 2.4-5.3 5.3 0 .3 0 .6.1.9L54.1 24c-.6.3-.9 1-.9 1.6V37c0 1 .8 1.9 1.9 1.9S57 38.1 57 37V26.8l4.6-2.7c.9.7 2.1 1.2 3.3 1.2 3 0 5.3-2.4 5.3-5.3s-2.4-5.5-5.3-5.5zM38.4 24l4.6 2.7V37c0 1 .8 1.9 1.9 1.9s1.9-.8 1.9-1.9V25.7c0-.7-.4-1.3-.9-1.6l-5.6-3.3c0-.3.1-.6.1-.9 0-3-2.4-5.3-5.3-5.3-3 0-5.3 2.4-5.3 5.3s2.4 5.3 5.3 5.3c1.3 0 2.4-.4 3.3-1.2zM64.5 51.7h-5.6v-4.5c0-2-1.6-3.6-3.6-3.6H44.7c-2 0-3.6 1.6-3.6 3.6v4.5h-5.6c-2.1 0-3.8 1.7-3.8 3.8v20.1c0 2.1 1.7 3.8 3.8 3.8h29c2.1 0 3.8-1.7 3.8-3.8V55.5c0-2.1-1.7-3.8-3.8-3.8zm-18.7-3.4h8.4v3.4h-8.4v-3.4zm12 19.2c0 .3-.3.6-.6.6h-4.6v4.6c0 .3-.3.6-.6.6h-4c-.3 0-.6-.3-.6-.6v-4.6h-4.6c-.3 0-.6-.3-.6-.6v-3.9c0-.3.3-.6.6-.6h4.6v-4.6c0-.3.3-.6.6-.6h4c.3 0 .6.3.6.6V63h4.6c.3 0 .6.3.6.6v3.9z" />
        </g>
</svg>